<?xml version="1.0" encoding="UTF-8"?>
<svg id="Layer_1" data-name="Layer 1" xmlns="http://www.w3.org/2000/svg" viewBox="0 0 1279.67 1281.92">
  <defs>
    <style>
      .cls-1 {
        fill: #ed1c24;
      }

      .cls-2 {
        fill: none;
        stroke: #ed1c24;
        stroke-linecap: round;
        stroke-linejoin: round;
        stroke-width: 90px;
      }
    </style>
  </defs>
  <path class="cls-1" d="M639.83,1281.92c-86.36,0-170.16-16.95-249.06-50.39-76.2-32.28-144.62-78.49-203.37-137.35-58.75-58.85-104.88-127.39-137.1-203.72C16.92,811.42,0,727.47,0,640.96s16.92-170.46,50.3-249.5c32.23-76.33,78.36-144.87,137.1-203.72s127.17-105.06,203.37-137.35C469.68,16.95,553.48,0,639.83,0s170.16,16.95,249.06,50.39c76.2,32.29,144.62,78.49,203.37,137.35,58.75,58.85,104.88,127.39,137.1,203.72,33.38,79.05,50.3,162.99,50.3,249.5s-16.92,170.46-50.3,249.5c-32.23,76.33-78.36,144.87-137.1,203.72-58.75,58.85-127.17,105.06-203.37,137.35-78.91,33.43-162.71,50.39-249.06,50.39ZM639.83,83.83c-306.66,0-556.15,249.93-556.15,557.13s249.49,557.13,556.15,557.13,556.15-249.93,556.15-557.13S946.49,83.83,639.83,83.83Z"/>
  <polyline class="cls-2" points="1152.69 943.62 844.21 90.69 652.85 1228.85 435.46 90.69 127.31 944.15"/>
</svg>